<svg width="20" height="20" viewBox="0 0 20 20" fill="none" xmlns="http://www.w3.org/2000/svg">
<path d="M1.25001 8.37474V17.1247L3.63334 14.7331H10.7917C11.4974 14.735 12.1837 14.5017 12.742 14.0701C13.3004 13.6385 13.699 13.0332 13.875 12.3497C13.9455 12.0777 13.9791 11.7974 13.975 11.5164V8.37474C13.975 7.53047 13.6396 6.72077 13.0426 6.12378C12.4456 5.52679 11.6359 5.19141 10.7917 5.19141H4.43334C3.58907 5.19141 2.77938 5.52679 2.18239 6.12378C1.5854 6.72077 1.25001 7.53047 1.25001 8.37474Z" stroke="white" stroke-miterlimit="10"/>
<path d="M6.025 4.39134V5.22467H10.7917C11.6359 5.22467 12.4456 5.56006 13.0426 6.15705C13.6396 6.75404 13.975 7.56374 13.975 8.40801V10.7913H16.3667L18.75 13.1413V4.39134C18.75 3.54707 18.4146 2.73738 17.8176 2.14038C17.2206 1.54339 16.4109 1.20801 15.5667 1.20801H9.16667C8.32964 1.21896 7.53061 1.55918 6.9426 2.15499C6.35459 2.7508 6.02493 3.55424 6.025 4.39134Z" stroke="white" stroke-miterlimit="10"/>
</svg>
