<svg width="60" height="60" viewBox="0 0 60 60" fill="none" xmlns="http://www.w3.org/2000/svg">
<path fill-rule="evenodd" clip-rule="evenodd" d="M12.2143 25.9594C10.3377 25.9594 8.81639 27.4806 8.81639 29.3573C8.81639 31.234 10.3377 32.7552 12.2143 32.7552C14.091 32.7552 15.6123 31.234 15.6123 29.3573C15.6123 27.4806 14.091 25.9594 12.2143 25.9594ZM4.28577 29.3573C4.28577 24.9784 7.83552 21.4287 12.2143 21.4287C16.5932 21.4287 20.1429 24.9784 20.1429 29.3573C20.1429 33.7362 16.5932 37.2859 12.2143 37.2859C7.83552 37.2859 4.28577 33.7362 4.28577 29.3573Z" fill="black"/>
<path fill-rule="evenodd" clip-rule="evenodd" d="M48.6428 25.9594C46.7661 25.9594 45.2449 27.4806 45.2449 29.3573C45.2449 31.234 46.7661 32.7552 48.6428 32.7552C50.5195 32.7552 52.0407 31.234 52.0407 29.3573C52.0407 27.4806 50.5195 25.9594 48.6428 25.9594ZM40.7142 29.3573C40.7142 24.9784 44.2639 21.4287 48.6428 21.4287C53.0217 21.4287 56.5714 24.9784 56.5714 29.3573C56.5714 33.7362 53.0217 37.2859 48.6428 37.2859C44.2639 37.2859 40.7142 33.7362 40.7142 29.3573Z" fill="black"/>
<path fill-rule="evenodd" clip-rule="evenodd" d="M30.4286 25.9594C28.5519 25.9594 27.0306 27.4806 27.0306 29.3573C27.0306 31.234 28.5519 32.7552 30.4286 32.7552C32.3053 32.7552 33.8265 31.234 33.8265 29.3573C33.8265 27.4806 32.3053 25.9594 30.4286 25.9594ZM22.5 29.3573C22.5 24.9784 26.0496 21.4287 30.4286 21.4287C34.8075 21.4287 38.3571 24.9784 38.3571 29.3573C38.3571 33.7362 34.8075 37.2859 30.4286 37.2859C26.0496 37.2859 22.5 33.7362 22.5 29.3573Z" fill="black"/>
</svg>
